<?xml version="1.0" standalone="no"?>
<!DOCTYPE svg PUBLIC "-//W3C//DTD SVG 20010904//EN"
 "http://www.w3.org/TR/2001/REC-SVG-20010904/DTD/svg10.dtd">
<svg version="1.0" xmlns="http://www.w3.org/2000/svg"
 width="162.000000pt" height="162.000000pt" viewBox="0 0 162.000000 162.000000"
 preserveAspectRatio="xMidYMid meet">
<metadata>
Created by potrace 1.11, written by Peter Selinger 2001-2013
</metadata>
<g transform="translate(0.000000,162.000000) scale(0.100000,-0.100000)"
fill="#000000" stroke="none">
<path d="M403 1456 c-28 -30 -70 -66 -92 -80 -57 -37 -151 -66 -223 -69 l-63
-3 1 -45 c1 -45 8 -105 19 -156 76 -359 236 -620 500 -814 44 -32 85 -62 90
-66 26 -20 95 -62 134 -82 38 -20 47 -21 75 -10 17 7 41 20 52 28 12 9 32 23
44 31 211 140 386 334 478 532 63 134 69 148 96 243 31 109 34 128 51 301 l6
61 -70 1 c-124 2 -221 42 -311 128 -68 65 -93 68 -209 28 -111 -39 -247 -41
-356 -7 -44 14 -100 27 -125 29 -43 4 -47 3 -97 -50z"/>
</g>
</svg>
