<?xml version="1.0" standalone="no"?>
<!DOCTYPE svg PUBLIC "-//W3C//DTD SVG 20010904//EN"
 "http://www.w3.org/TR/2001/REC-SVG-20010904/DTD/svg10.dtd">
<svg version="1.0" xmlns="http://www.w3.org/2000/svg"
 width="2409.000000pt" height="2409.000000pt" viewBox="0 0 2409.000000 2409.000000"
 preserveAspectRatio="xMidYMid meet">
<metadata>
Created by potrace 1.11, written by Peter Selinger 2001-2013
</metadata>
<g transform="translate(0.000000,2409.000000) scale(0.100000,-0.100000)"
fill="#000000" stroke="none">
<path d="M16538 23545 c-2 -1 -66 -5 -143 -9 -77 -4 -156 -9 -175 -11 -19 -1
-67 -6 -105 -9 -39 -4 -80 -8 -90 -10 -11 -2 -47 -7 -80 -10 -58 -7 -96 -12
-160 -22 -26 -4 -266 -47 -331 -60 -274 -52 -821 -219 -1079 -329 -222 -94
-233 -99 -410 -186 -279 -137 -431 -224 -675 -385 -227 -150 -433 -302 -577
-425 -26 -23 -77 -67 -113 -98 -91 -78 -423 -411 -501 -501 -35 -41 -68 -80
-74 -86 -13 -14 -62 -75 -125 -154 -28 -36 -56 -72 -63 -80 -7 -8 -47 -62 -88
-120 -540 -753 -889 -1610 -1039 -2552 -11 -70 -23 -156 -26 -190 -3 -34 -7
-65 -9 -68 -2 -3 -6 -45 -10 -95 -3 -49 -8 -101 -10 -115 -22 -128 -22 -756
-1 -970 2 -19 7 -69 11 -110 4 -41 9 -86 10 -100 7 -68 25 -199 40 -292 3 -16
7 -43 10 -60 3 -18 8 -44 10 -58 3 -14 7 -34 9 -45 2 -11 11 -54 19 -95 9 -41
18 -86 21 -100 2 -14 13 -59 24 -100 12 -41 23 -86 26 -100 10 -53 67 -244
117 -391 267 -796 691 -1506 1279 -2142 94 -102 284 -291 375 -372 42 -38 83
-75 89 -80 6 -6 52 -44 101 -85 50 -41 92 -77 95 -80 25 -27 318 -239 455
-330 495 -329 1063 -591 1652 -761 59 -17 124 -35 143 -39 19 -5 71 -17 115
-28 146 -36 437 -92 561 -107 27 -3 60 -8 74 -10 14 -3 52 -7 85 -10 33 -3 78
-8 100 -10 57 -6 197 -16 285 -20 92 -5 483 -5 565 0 114 7 240 16 270 19 17
2 62 7 100 10 39 4 77 9 85 11 8 2 40 6 70 10 30 3 66 7 80 10 14 2 77 13 140
24 264 45 565 120 806 200 166 55 325 112 382 137 20 9 46 20 57 24 241 95
595 273 845 425 271 165 610 411 799 580 19 16 59 52 90 80 59 52 352 344 412
411 19 21 64 73 99 114 35 41 66 77 70 80 10 8 198 250 236 305 19 28 68 100
109 160 41 61 78 115 83 120 11 14 152 246 152 251 0 2 12 23 27 47 14 23 47
80 71 127 98 187 108 205 110 212 2 4 24 54 51 110 44 93 81 175 86 188 1 3 6
16 12 30 45 104 119 299 163 430 56 163 160 535 173 617 3 17 7 35 10 40 3 4
8 25 11 45 3 21 10 57 15 80 5 24 12 63 16 88 3 25 8 52 11 61 3 10 7 32 9 50
4 32 14 94 20 130 2 9 8 61 14 115 7 55 14 117 16 139 15 136 20 255 20 540 0
284 -4 397 -21 540 -12 110 -26 219 -30 240 -2 11 -9 47 -14 80 -6 33 -15 80
-20 105 -5 25 -12 56 -14 70 -2 14 -16 72 -31 130 -15 58 -28 112 -30 120 -23
94 -126 389 -170 486 -8 16 -28 60 -44 98 l-31 67 -66 -83 c-76 -95 -230 -251
-320 -325 -215 -176 -505 -313 -734 -349 -19 -3 -42 -7 -50 -9 -32 -9 -139
-18 -231 -19 -264 -6 -576 59 -849 177 -52 22 -100 44 -106 49 -6 4 -36 21
-68 38 -281 150 -534 442 -655 755 -36 94 -75 219 -85 275 -2 14 -9 52 -15 85
-5 33 -14 87 -18 120 -10 74 -10 452 0 520 24 163 79 356 136 473 17 34 31 64
31 67 0 11 87 146 138 214 56 75 193 219 267 280 173 144 494 330 684 398 28
10 51 21 51 25 0 11 -162 155 -288 255 -539 432 -1179 746 -1888 928 -199 51
-264 65 -464 99 -145 25 -270 41 -470 61 -122 12 -246 17 -462 20 -131 1 -239
1 -240 0z m1911 -3809 c14 -3 42 -8 61 -11 343 -55 646 -307 754 -627 46 -133
58 -212 61 -388 4 -195 -11 -294 -66 -443 -117 -323 -377 -539 -734 -613 -95
-19 -332 -27 -425 -13 -99 15 -100 15 -180 39 -483 143 -750 581 -697 1145 7
81 9 90 37 198 80 306 312 556 611 657 35 12 71 23 79 25 8 2 33 8 56 14 22 6
74 14 115 17 41 4 75 8 77 9 5 5 223 -4 251 -9z"/>
<path d="M13327 23514 c-1 -1 -56 -5 -122 -8 -66 -4 -147 -9 -180 -11 -79 -5
-255 -14 -380 -20 -55 -3 -147 -7 -205 -10 -58 -3 -150 -7 -205 -10 -139 -7
-401 -23 -490 -30 -27 -2 -84 -7 -125 -10 -41 -3 -96 -8 -122 -10 -25 -3 -72
-7 -105 -10 -32 -3 -74 -7 -93 -10 -48 -6 -113 -15 -235 -30 -27 -3 -61 -8
-75 -10 -14 -3 -41 -7 -60 -10 -19 -3 -60 -10 -90 -15 -30 -5 -71 -12 -90 -15
-19 -3 -42 -8 -50 -10 -8 -2 -31 -7 -50 -10 -42 -7 -169 -32 -225 -45 -22 -5
-94 -21 -160 -36 -150 -32 -464 -110 -655 -163 -1543 -422 -2906 -1097 -4025
-1990 -104 -83 -359 -297 -406 -341 -8 -8 -65 -60 -125 -115 -131 -120 -448
-437 -559 -560 -44 -49 -84 -93 -90 -99 -5 -6 -64 -74 -130 -151 -362 -421
-707 -903 -1005 -1405 -65 -109 -154 -266 -212 -375 -369 -683 -696 -1489
-927 -2278 -76 -262 -92 -318 -97 -341 -2 -10 -8 -33 -13 -50 -9 -28 -88 -339
-96 -376 -2 -8 -10 -45 -19 -83 -9 -37 -18 -81 -21 -99 -3 -17 -8 -34 -10 -38
-2 -3 -6 -17 -9 -31 -2 -13 -19 -94 -36 -179 -17 -85 -34 -166 -36 -180 -3
-14 -11 -59 -19 -100 -8 -41 -17 -91 -20 -110 -3 -19 -8 -48 -11 -65 -2 -16
-9 -55 -14 -85 -15 -88 -17 -104 -49 -325 -16 -115 -33 -239 -36 -275 -4 -36
-8 -76 -10 -90 -6 -40 -22 -206 -29 -300 -20 -245 -21 -257 -32 -510 -14 -308
-8 -954 11 -1175 2 -22 6 -83 9 -135 6 -90 10 -132 21 -225 3 -22 7 -69 11
-105 6 -66 41 -354 49 -400 2 -14 7 -43 10 -65 29 -197 102 -570 155 -795 17
-69 33 -135 35 -148 6 -23 86 -319 110 -402 101 -353 298 -887 455 -1235 167
-371 397 -818 561 -1090 13 -23 29 -50 36 -60 6 -11 45 -73 85 -138 40 -65 78
-126 83 -135 18 -30 264 -394 316 -467 27 -38 64 -90 82 -115 61 -87 397 -522
417 -540 3 -3 25 -30 50 -60 25 -30 49 -60 55 -66 5 -6 30 -35 55 -64 39 -47
176 -205 205 -236 5 -6 48 -53 95 -104 348 -381 787 -808 1090 -1060 29 -25
73 -61 96 -80 98 -82 431 -338 494 -380 13 -8 35 -24 49 -36 28 -22 359 -245
451 -304 273 -172 587 -349 890 -501 172 -86 454 -219 465 -219 2 0 32 -13 67
-29 81 -37 354 -151 363 -151 4 0 21 -6 38 -14 175 -77 660 -240 972 -327 39
-11 77 -22 85 -24 8 -2 85 -22 170 -45 85 -22 171 -44 190 -50 39 -10 241 -57
280 -64 14 -2 45 -9 70 -15 90 -20 477 -92 575 -106 22 -3 65 -10 95 -15 30
-6 73 -12 95 -15 47 -5 117 -15 160 -21 17 -3 44 -7 60 -9 17 -2 55 -7 86 -10
31 -3 65 -7 75 -9 11 -2 55 -7 99 -11 44 -4 94 -8 110 -10 17 -2 68 -7 115
-11 47 -3 99 -8 115 -9 349 -32 929 -44 1375 -30 129 4 255 8 280 10 56 3 253
16 300 20 19 1 80 6 135 10 55 4 109 9 120 11 11 2 47 6 80 9 82 7 155 15 185
20 14 2 50 6 80 10 30 4 66 8 80 10 14 2 45 6 70 9 103 13 126 16 150 21 14 3
45 7 70 10 70 9 437 73 573 101 67 13 134 27 149 29 24 5 260 58 313 71 11 3
30 7 41 10 59 12 387 98 524 138 611 175 1150 373 1750 643 77 35 618 304 669
334 30 17 80 44 110 60 31 17 63 34 71 39 8 6 56 33 105 61 303 173 715 440
965 626 47 34 96 71 109 80 111 81 447 351 573 461 78 68 104 100 137 168 l32
66 -23 27 c-14 14 -47 51 -75 81 -28 30 -63 69 -78 85 -15 17 -64 70 -109 119
-44 49 -89 98 -99 110 -10 12 -56 62 -102 111 -46 50 -94 102 -107 116 -12 14
-61 67 -108 119 -47 51 -96 105 -110 120 -70 76 -194 211 -208 228 -17 19
-157 173 -222 242 -19 21 -73 80 -120 131 -47 51 -94 103 -105 114 -11 12 -81
88 -155 170 -74 82 -146 161 -160 175 -14 15 -65 71 -115 125 -49 54 -94 103
-100 109 -5 6 -50 56 -100 110 -49 55 -103 114 -120 132 -16 17 -64 69 -105
114 -41 46 -86 95 -100 110 -122 132 -208 226 -221 241 -9 11 -57 63 -106 116
-50 54 -105 114 -123 134 l-32 37 -116 -81 c-65 -44 -151 -104 -192 -132 -258
-179 -437 -293 -665 -424 -88 -50 -167 -96 -175 -101 -24 -16 -92 -51 -310
-162 -534 -271 -1058 -469 -1640 -622 -85 -22 -301 -73 -340 -81 -20 -3 -94
-18 -100 -20 -3 0 -27 -5 -55 -10 -27 -4 -54 -9 -60 -11 -19 -5 -400 -63 -455
-69 -30 -3 -71 -8 -90 -10 -35 -5 -74 -9 -200 -20 -211 -18 -419 -27 -645 -27
-167 -1 -454 8 -570 17 -181 14 -294 24 -345 30 -19 3 -57 7 -85 10 -63 7
-195 24 -221 29 -10 2 -41 7 -69 10 -27 4 -61 9 -75 11 -42 9 -63 12 -110 19
-359 54 -1169 262 -1423 366 -12 5 -75 29 -140 54 -174 68 -374 158 -535 242
-151 79 -374 203 -382 214 -3 4 -16 13 -30 20 -81 42 -411 274 -560 394 -41
34 -83 68 -94 76 -21 17 -30 24 -160 140 -110 97 -383 372 -471 474 -33 38
-65 74 -70 80 -9 9 -151 184 -208 256 -28 35 -187 260 -223 315 -21 33 -42 62
-45 65 -5 4 -67 105 -104 168 -5 10 -32 55 -60 102 -286 491 -525 1083 -669
1659 -44 174 -108 480 -121 576 -3 28 -8 59 -10 70 -4 24 -12 84 -20 145 -3
25 -8 56 -10 70 -2 14 -7 57 -10 95 -4 39 -9 84 -11 100 -2 17 -6 73 -10 125
-3 52 -8 111 -10 130 -24 226 -23 947 1 1275 6 87 15 195 20 235 2 19 7 58 10
85 10 91 15 140 20 178 12 91 16 124 21 152 3 17 7 44 10 60 2 17 9 56 15 87
5 32 12 70 15 85 11 65 15 85 44 223 18 80 33 152 35 160 41 196 195 693 261
847 8 17 14 34 14 38 0 4 6 21 14 38 7 18 37 88 66 157 247 586 624 1184 1035
1639 16 18 41 45 54 60 139 155 411 413 587 558 392 322 738 544 1284 825 294
152 469 286 538 413 17 32 48 141 67 236 6 27 66 253 74 279 5 14 19 59 31
100 23 77 79 250 124 377 36 103 145 369 207 503 190 415 469 881 731 1220 32
41 68 88 81 105 184 242 575 651 857 895 41 36 80 70 86 75 60 53 252 205 396
313 122 91 532 372 544 372 9 0 144 90 144 97 0 4 -10 42 -21 85 l-21 79 -49
-2 c-27 -2 -50 -4 -52 -5z"/>
</g>
</svg>
